HIERARCHY
ROOT Hips
{
	OFFSET 0.000000 83.214638 0.000000
	CHANNELS 6 Xposition Yposition Zposition Xrotation Yrotation Zrotation
	JOINT Pelvis
	{
		OFFSET 0.000000 0.000000 0.000000
		CHANNELS 3 Xrotation Yrotation Zrotation
		JOINT LeftUpLeg
		{
			OFFSET 8.479700 -4.795502 -0.379100
			CHANNELS 3 Xrotation Yrotation Zrotation
			JOINT LeftLeg
			{
				OFFSET 0.024144 -32.555107 0.112900
				CHANNELS 3 Xrotation Yrotation Zrotation
				JOINT LeftFoot
				{
					OFFSET -0.024144 -32.638630 -3.012600
					CHANNELS 3 Xrotation Yrotation Zrotation
					JOINT LeftToeBase
					{
						OFFSET 0.970200 -13.225400 11.864200
						CHANNELS 3 Xrotation Yrotation Zrotation
						End Site
						{
							OFFSET 0.000000 12.319262 0.000000
						}
					}
					JOINT LFootTongue
					{
						OFFSET 1.142400 -1.059800 6.665200
						CHANNELS 3 Xrotation Yrotation Zrotation
						End Site
						{
							OFFSET 0.000000 12.319262 0.000000
						}
					}
				}
				JOINT LeftPantLeg
				{
					OFFSET 0.918482 -16.533964 -2.284700
					CHANNELS 3 Xrotation Yrotation Zrotation
					End Site
					{
						OFFSET 0.350399 24.744368 0.000000
					}
				}
			}
		}
		JOINT RightUpLeg
		{
			OFFSET -8.479700 -4.795502 -0.379100
			CHANNELS 3 Xrotation Yrotation Zrotation
			JOINT RightLeg
			{
				OFFSET -0.023144 -32.555092 0.112900
				CHANNELS 3 Xrotation Yrotation Zrotation
				JOINT RightFoot
				{
					OFFSET 0.023144 -32.638641 -3.012700
					CHANNELS 3 Xrotation Yrotation Zrotation
					JOINT RightToeBase
					{
						OFFSET -0.970200 -13.225400 11.864200
						CHANNELS 3 Xrotation Yrotation Zrotation
						End Site
						{
							OFFSET 0.000000 12.319244 0.000000
						}
					}
					JOINT RFootTongue
					{
						OFFSET -1.142200 -1.059800 6.665200
						CHANNELS 3 Xrotation Yrotation Zrotation
						End Site
						{
							OFFSET 0.000000 12.319243 0.000000
						}
					}
				}
				JOINT RightPantLeg
				{
					OFFSET -0.919482 -16.533978 -2.284800
					CHANNELS 3 Xrotation Yrotation Zrotation
					End Site
					{
						OFFSET -0.350400 24.744419 0.000000
					}
				}
			}
		}
	}
	JOINT Spine
	{
		OFFSET 0.000000 7.722000 1.166200
		CHANNELS 3 Xrotation Yrotation Zrotation
		JOINT Spine1
		{
			OFFSET 0.000000 12.024101 0.248800
			CHANNELS 3 Xrotation Yrotation Zrotation
			JOINT Spine2
			{
				OFFSET 0.000000 11.502998 -0.491200
				CHANNELS 3 Xrotation Yrotation Zrotation
				JOINT Neck
				{
					OFFSET 0.000000 18.430702 -3.123100
					CHANNELS 3 Xrotation Yrotation Zrotation
					JOINT Head
					{
						OFFSET 0.000000 9.051102 1.034000
						CHANNELS 3 Xrotation Yrotation Zrotation
						JOINT HairB
						{
							OFFSET 0.208400 24.786102 24.822300
							CHANNELS 3 Xrotation Yrotation Zrotation
							End Site
							{
								OFFSET 0.000000 32.263779 0.000000
							}
						}
						JOINT HairA
						{
							OFFSET -7.081100 24.428299 23.196600
							CHANNELS 3 Xrotation Yrotation Zrotation
							End Site
							{
								OFFSET 0.000000 32.263779 0.000000
							}
						}
						JOINT Hat
						{
							OFFSET 16.728800 15.048294 -15.439601
							CHANNELS 3 Xrotation Yrotation Zrotation
							End Site
							{
								OFFSET 0.000000 32.263779 0.000000
							}
						}
					}
				}
				JOINT LeftShoulder
				{
					OFFSET 6.197800 13.665199 -4.064700
					CHANNELS 3 Xrotation Yrotation Zrotation
					JOINT LeftArm
					{
						OFFSET 7.778100 -0.187103 -1.709300
						CHANNELS 3 Xrotation Yrotation Zrotation
						JOINT LeftForeArm
						{
							OFFSET 22.049376 0.000000 0.000000
							CHANNELS 3 Xrotation Yrotation Zrotation
							JOINT LeftHand
							{
								OFFSET 23.009392 0.000000 0.000000
								CHANNELS 3 Xrotation Yrotation Zrotation
								JOINT LeftHandThumb1
								{
									OFFSET 3.507191 -2.063065 3.133727
									CHANNELS 3 Xrotation Yrotation Zrotation
									JOINT LeftHandThumb2
									{
										OFFSET 3.101337 -1.790558 1.790558
										CHANNELS 3 Xrotation Yrotation Zrotation
										JOINT LeftHandThumb3
										{
											OFFSET 3.058640 -1.765907 1.765906
											CHANNELS 3 Xrotation Yrotation Zrotation
											End Site
											{
												OFFSET -0.415260 3.926476 -0.049563
											}
										}
									}
								}
								JOINT LeftHandIndex1
								{
									OFFSET 11.334419 -0.901459 3.706815
									CHANNELS 3 Xrotation Yrotation Zrotation
									JOINT LeftHandIndex2
									{
										OFFSET 3.283112 0.000000 0.000000
										CHANNELS 3 Xrotation Yrotation Zrotation
										JOINT LeftHandIndex3
										{
											OFFSET 3.323853 0.000000 0.000000
											CHANNELS 3 Xrotation Yrotation Zrotation
											End Site
											{
												OFFSET -1.135597 3.097809 0.402452
											}
										}
									}
								}
								JOINT LeftHandMiddle1
								{
									OFFSET 11.335861 0.000000 0.000000
									CHANNELS 3 Xrotation Yrotation Zrotation
									JOINT LeftHandMiddle2
									{
										OFFSET 3.410492 0.000000 0.000000
										CHANNELS 3 Xrotation Yrotation Zrotation
										JOINT LeftHandMiddle3
										{
											OFFSET 3.312172 0.000000 0.000000
											CHANNELS 3 Xrotation Yrotation Zrotation
											End Site
											{
												OFFSET -1.150200 3.080154 0.400270
											}
										}
									}
								}
								JOINT LeftHandRing1
								{
									OFFSET 11.514786 -0.013176 -3.003090
									CHANNELS 3 Xrotation Yrotation Zrotation
									JOINT LeftHandRing2
									{
										OFFSET 3.053307 0.000000 0.000000
										CHANNELS 3 Xrotation Yrotation Zrotation
										JOINT LeftHandRing3
										{
											OFFSET 3.295807 0.000000 0.000000
											CHANNELS 3 Xrotation Yrotation Zrotation
											End Site
											{
												OFFSET -1.281006 3.013344 0.375733
											}
										}
									}
								}
								JOINT LeftHandPinky1
								{
									OFFSET 10.518692 -0.960396 -5.730441
									CHANNELS 3 Xrotation Yrotation Zrotation
									JOINT LeftHandPinky2
									{
										OFFSET 2.861649 0.000000 0.000000
										CHANNELS 3 Xrotation Yrotation Zrotation
										JOINT LeftHandPinky3
										{
											OFFSET 2.863380 0.000000 0.000000
											CHANNELS 3 Xrotation Yrotation Zrotation
											End Site
											{
												OFFSET -0.843597 2.711159 0.369971
											}
										}
									}
								}
							}
							JOINT LSleeve
							{
								OFFSET 6.676277 -0.344902 -1.011730
								CHANNELS 3 Xrotation Yrotation Zrotation
								End Site
								{
									OFFSET 0.000000 14.885353 0.000000
								}
							}
						}
					}
				}
				JOINT RightShoulder
				{
					OFFSET -6.197800 13.665199 -4.064700
					CHANNELS 3 Xrotation Yrotation Zrotation
					JOINT RightArm
					{
						OFFSET -7.778100 -0.187103 -1.709300
						CHANNELS 3 Xrotation Yrotation Zrotation
						JOINT RightForeArm
						{
							OFFSET -22.049376 0.000000 0.000000
							CHANNELS 3 Xrotation Yrotation Zrotation
							JOINT RightHand
							{
								OFFSET -23.009392 0.000000 0.000000
								CHANNELS 3 Xrotation Yrotation Zrotation
								JOINT RightHandThumb1
								{
									OFFSET -3.507191 -2.063065 3.133727
									CHANNELS 3 Xrotation Yrotation Zrotation
									JOINT RightHandThumb2
									{
										OFFSET -3.101337 -1.790558 1.790558
										CHANNELS 3 Xrotation Yrotation Zrotation
										JOINT RightHandThumb3
										{
											OFFSET -3.058640 -1.765907 1.765906
											CHANNELS 3 Xrotation Yrotation Zrotation
											End Site
											{
												OFFSET 0.415260 3.926476 -0.049563
											}
										}
									}
								}
								JOINT RightHandIndex1
								{
									OFFSET -11.334419 -0.901459 3.706815
									CHANNELS 3 Xrotation Yrotation Zrotation
									JOINT RightHandIndex2
									{
										OFFSET -3.283112 0.000000 0.000000
										CHANNELS 3 Xrotation Yrotation Zrotation
										JOINT RightHandIndex3
										{
											OFFSET -3.323853 0.000000 0.000000
											CHANNELS 3 Xrotation Yrotation Zrotation
											End Site
											{
												OFFSET 1.135597 3.097809 0.402452
											}
										}
									}
								}
								JOINT RightHandMiddle1
								{
									OFFSET -11.335861 0.000000 0.000000
									CHANNELS 3 Xrotation Yrotation Zrotation
									JOINT RightHandMiddle2
									{
										OFFSET -3.410492 0.000000 0.000000
										CHANNELS 3 Xrotation Yrotation Zrotation
										JOINT RightHandMiddle3
										{
											OFFSET -3.312172 0.000000 0.000000
											CHANNELS 3 Xrotation Yrotation Zrotation
											End Site
											{
												OFFSET 1.150200 3.080154 0.400270
											}
										}
									}
								}
								JOINT RightHandRing1
								{
									OFFSET -11.514786 -0.013176 -3.003090
									CHANNELS 3 Xrotation Yrotation Zrotation
									JOINT RightHandRing2
									{
										OFFSET -3.053307 0.000000 0.000000
										CHANNELS 3 Xrotation Yrotation Zrotation
										JOINT RightHandRing3
										{
											OFFSET -3.295807 0.000000 0.000000
											CHANNELS 3 Xrotation Yrotation Zrotation
											End Site
											{
												OFFSET 1.281006 3.013344 0.375733
											}
										}
									}
								}
								JOINT RightHandPinky1
								{
									OFFSET -10.518692 -0.960396 -5.730441
									CHANNELS 3 Xrotation Yrotation Zrotation
									JOINT RightHandPinky2
									{
										OFFSET -2.861649 0.000000 0.000000
										CHANNELS 3 Xrotation Yrotation Zrotation
										JOINT RightHandPinky3
										{
											OFFSET -2.863380 0.000000 0.000000
											CHANNELS 3 Xrotation Yrotation Zrotation
											End Site
											{
												OFFSET 0.843597 2.711159 0.369971
											}
										}
									}
								}
							}
							JOINT RSleeve
							{
								OFFSET -6.676277 -0.344902 -1.011730
								CHANNELS 3 Xrotation Yrotation Zrotation
								End Site
								{
									OFFSET 0.000000 14.885353 0.000000
								}
							}
						}
					}
				}
				JOINT Backpack
				{
					OFFSET 0.000000 -2.471497 36.677502
					CHANNELS 3 Xrotation Yrotation Zrotation
					End Site
					{
						OFFSET 0.000000 20.427315 0.000000
					}
				}
				JOINT Hood
				{
					OFFSET 0.000000 18.754097 -10.431000
					CHANNELS 3 Xrotation Yrotation Zrotation
					JOINT Hood1
					{
						OFFSET 0.000000 -5.011002 -7.685901
						CHANNELS 3 Xrotation Yrotation Zrotation
						End Site
						{
							OFFSET 0.000000 9.175140 0.000000
						}
					}
				}
				JOINT LHoodieString
				{
					OFFSET 5.250500 16.397697 3.089900
					CHANNELS 3 Xrotation Yrotation Zrotation
					JOINT LHoodieString1
					{
						OFFSET 0.257700 -6.364304 3.694600
						CHANNELS 3 Xrotation Yrotation Zrotation
						JOINT LHoodieString2
						{
							OFFSET 0.000000 -9.643799 2.679100
							CHANNELS 3 Xrotation Yrotation Zrotation
							End Site
							{
								OFFSET 0.000000 10.009018 0.000000
							}
						}
					}
				}
				JOINT RHoodieString
				{
					OFFSET -5.250500 16.397697 3.089900
					CHANNELS 3 Xrotation Yrotation Zrotation
					JOINT RHoodieString1
					{
						OFFSET -0.257700 -6.364304 3.694600
						CHANNELS 3 Xrotation Yrotation Zrotation
						JOINT RHoodieString2
						{
							OFFSET 0.000000 -9.643799 2.679100
							CHANNELS 3 Xrotation Yrotation Zrotation
							End Site
							{
								OFFSET 0.000000 10.009018 0.000000
							}
						}
					}
				}
			}
			JOINT LBackpack_Strap
			{
				OFFSET 15.223200 -7.719803 -6.610900
				CHANNELS 3 Xrotation Yrotation Zrotation
				End Site
				{
					OFFSET 0.000000 16.040596 0.000000
				}
			}
			JOINT RBackpack_Strap
			{
				OFFSET -15.223000 -7.719803 -6.610900
				CHANNELS 3 Xrotation Yrotation Zrotation
				End Site
				{
					OFFSET 0.000000 16.040596 0.000000
				}
			}
		}
	}
	JOINT BoyFacialAnim_Joint
	{
		OFFSET 1.000000 -82.208099 -1.550900
		CHANNELS 3 Xrotation Yrotation Zrotation
		End Site
		{
			OFFSET 0.000000 30.012791 0.000000
		}
	}
}
MOTION
Frames: 4
Frame Time: 0.033333
-0.978383 60.660919 70.803795 70.221714 84.018519 -72.535940 0.000000 -0.000000 0.000000 -54.711400 -8.359909 29.776298 85.640095 -7.753550 -0.772497 -36.305502 -9.288252 -10.700711 -0.000000 0.000000 -0.000000 -0.000000 0.000000 0.000000 -0.000003 0.000000 0.000001 -47.744009 11.271860 -35.206702 55.600537 7.811443 0.703680 -13.595412 7.343726 33.370607 -0.000000 0.000000 -0.000000 -0.000000 0.000000 -0.000000 0.000002 -0.000001 0.000001 7.506260 -8.745917 -3.458937 1.293492 -1.207592 -4.480692 1.173289 -1.424213 -4.479911 29.346167 1.416571 22.883697 1.221908 -26.675763 22.167901 0.000002 -0.000000 0.000001 0.000002 -0.000000 0.000001 0.000002 -0.000000 0.000001 1.244623 -0.828433 -10.724986 -61.443753 -50.291117 -87.190459 0.003070 -95.457276 0.003016 -6.045869 -21.735836 0.525860 25.770645 2.087722 -0.829103 59.964252 6.042505 -30.402675 -0.000002 -0.000001 0.000004 6.791763 6.880628 -89.253422 6.791762 6.880616 -89.253470 -0.000000 0.000002 -0.000003 6.789815 6.880599 -89.237221 6.793685 6.880627 -89.269685 0.000006 -0.000001 -0.000003 6.791751 6.880605 -89.253422 6.791754 6.880627 -89.253463 -0.000002 -0.000001 0.000001 10.875347 6.934116 -89.234325 6.794064 2.794428 -89.280613 -0.000006 -0.000001 -0.000000 -0.000000 0.000003 -0.000001 0.489103 -1.206066 6.168398 -2.159139 -10.096163 52.559067 0.000005 140.590333 -0.000007 -33.057071 7.215119 -17.294886 37.531186 -1.042671 14.670391 59.455840 -23.751530 11.697945 -0.000001 -0.000002 0.000001 7.245909 -6.941909 92.461186 7.245885 -6.941890 92.461213 -0.000002 0.000001 0.000000 7.245888 -6.941902 92.461179 7.245886 -6.941878 92.461220 -0.000001 -0.000002 -0.000004 7.245883 -6.941878 92.461186 7.245859 -6.941898 92.461207 0.000002 0.000001 0.000000 7.245882 -6.941861 92.461172 7.245887 -6.941904 92.461220 -0.000000 0.000001 0.000000 -0.000001 -0.000000 -0.000001 0.000003 -0.000001 -0.000001 0.000003 -0.000001 -0.000001 0.000003 -0.000001 -0.000001 0.000003 -0.000001 -0.000001 0.000003 -0.000001 0.000000 0.000001 -0.000002 0.000001 0.000003 -0.000001 -0.000001 0.000003 -0.000001 0.000000 0.000001 -0.000002 0.000001 0.000001 -0.000001 0.000000 0.000001 -0.000001 0.000000 0.000000 -0.000000 0.000000 
-0.885413 60.664703 73.568237 80.319985 84.266475 -81.931507 0.000001 -0.000000 -0.000000 -53.194207 -9.856873 30.645355 82.682384 -8.202108 -0.811653 -34.851641 -8.848022 -12.887087 0.000000 -0.000000 0.000000 0.000000 -0.000000 0.000000 0.000001 0.000002 0.000001 -49.505703 11.613779 -34.670733 60.367042 7.696509 0.815811 -17.192016 9.110485 31.624216 0.000000 -0.000000 0.000000 0.000000 -0.000000 0.000000 -0.000001 -0.000000 -0.000002 8.022932 -6.599655 -2.684056 1.564453 -0.915991 -4.313276 1.473552 -1.135273 -4.314851 27.167848 0.186405 21.784914 -0.833766 -29.892415 21.684401 -0.000000 -0.000002 0.000002 -0.000000 -0.000002 0.000002 -0.000000 -0.000002 0.000002 1.239648 -0.082491 -11.573584 -61.084861 -50.099854 -84.899422 0.000569 -98.935563 0.000594 -9.365929 -19.410803 2.011983 25.770647 2.087719 -0.829104 59.964252 6.042506 -30.402675 -0.000001 -0.000001 0.000001 6.791769 6.880629 -89.253422 6.791757 6.880621 -89.253463 -0.000000 0.000000 -0.000002 6.789816 6.880600 -89.237221 6.793688 6.880627 -89.269678 -0.000001 -0.000001 -0.000004 6.791749 6.880607 -89.253422 6.791754 6.880625 -89.253456 -0.000000 0.000001 -0.000002 10.875347 6.934115 -89.234325 6.794066 2.794430 -89.280620 -0.000004 0.000001 -0.000003 -0.000003 -0.000001 0.000002 0.464107 -0.887284 5.578343 -7.153692 -8.157296 50.639938 0.000004 140.200998 0.000002 -35.195241 6.510328 -16.935452 37.531183 -1.042669 14.670391 59.455834 -23.751527 11.697947 0.000001 0.000001 -0.000001 7.245910 -6.941904 92.461186 7.245888 -6.941888 92.461213 0.000001 -0.000001 -0.000000 7.245886 -6.941898 92.461179 7.245889 -6.941879 92.461220 0.000003 0.000001 -0.000002 7.245887 -6.941870 92.461179 7.245869 -6.941902 92.461207 0.000001 0.000001 0.000001 7.245880 -6.941861 92.461172 7.245890 -6.941907 92.461220 0.000001 -0.000001 -0.000002 -0.000002 0.000001 -0.000001 -0.000000 0.000000 0.000000 -0.000000 0.000000 0.000000 -0.000000 0.000000 0.000000 -0.000000 0.000000 0.000000 -0.000000 0.000000 0.000000 -0.000000 -0.000001 -0.000001 -0.000000 0.000000 0.000000 -0.000000 0.000000 0.000000 -0.000000 -0.000001 -0.000001 0.000002 -0.000000 -0.000000 0.000002 -0.000000 -0.000000 0.000001 -0.000000 -0.000000 
-0.865026 61.002357 75.656311 81.102370 83.717239 -82.088424 0.000000 -0.000000 0.000000 -51.856442 -10.023736 31.761541 79.206535 -7.800129 -0.828237 -33.223642 -8.622803 -15.435251 0.000000 0.000000 -0.000001 0.000000 0.000000 -0.000000 -0.000004 0.000001 0.000001 -52.221202 11.061125 -33.754481 63.568127 7.876826 0.839302 -18.304074 9.703293 29.179944 0.000000 -0.000000 0.000000 0.000000 -0.000000 0.000000 -0.000002 -0.000000 -0.000001 8.266836 -5.773068 -1.670733 1.705989 -0.827720 -4.080547 1.626675 -1.040910 -4.083254 25.749566 -0.727497 21.037862 -2.412187 -32.513941 21.523444 -0.000001 0.000002 0.000000 -0.000001 0.000002 0.000000 -0.000001 0.000002 0.000000 1.221665 0.173549 -11.863435 -58.931268 -50.166906 -82.330718 -0.000264 -102.563623 -0.000279 -11.954434 -18.718113 2.913796 25.770642 2.087723 -0.829103 59.964252 6.042506 -30.402675 0.000002 -0.000005 0.000000 6.791762 6.880628 -89.253415 6.791760 6.880620 -89.253463 0.000000 -0.000003 -0.000004 6.789816 6.880602 -89.237221 6.793686 6.880626 -89.269685 0.000002 -0.000002 -0.000000 6.791748 6.880607 -89.253422 6.791756 6.880619 -89.253456 -0.000001 -0.000001 -0.000002 10.875350 6.934117 -89.234325 6.794064 2.794426 -89.280613 0.000001 0.000003 -0.000001 -0.000001 -0.000000 0.000000 0.451450 -0.883804 5.393700 -9.959713 -6.430678 50.394037 -0.000003 140.673169 0.000002 -36.264886 7.462498 -15.024502 37.531179 -1.042669 14.670393 59.455834 -23.751527 11.697949 -0.000000 0.000001 0.000002 7.245912 -6.941905 92.461186 7.245888 -6.941890 92.461213 -0.000001 -0.000000 0.000002 7.245887 -6.941894 92.461186 7.245884 -6.941877 92.461213 0.000002 0.000001 -0.000000 7.245884 -6.941874 92.461186 7.245869 -6.941901 92.461200 0.000002 0.000002 0.000001 7.245883 -6.941862 92.461172 7.245883 -6.941905 92.461220 -0.000000 -0.000002 -0.000000 -0.000001 0.000002 -0.000003 0.000001 0.000000 -0.000000 0.000001 0.000000 -0.000000 0.000001 0.000000 -0.000000 0.000001 0.000000 -0.000000 0.000001 0.000000 -0.000000 -0.000000 0.000000 0.000000 0.000001 0.000000 -0.000000 0.000001 0.000000 -0.000000 -0.000000 0.000000 0.000000 0.000000 -0.000000 -0.000000 0.000000 -0.000000 -0.000000 0.000000 -0.000000 0.000000 
-0.923925 61.319832 77.199562 75.190165 82.507189 -75.465749 0.000000 0.000000 0.000000 -51.209483 -8.986658 33.211460 76.114535 -6.951880 -0.825422 -31.720249 -8.785177 -17.954892 0.000000 0.000000 0.000000 0.000000 0.000000 0.000000 -0.000001 0.000002 -0.000001 -55.817003 10.212912 -33.010448 65.687391 8.516181 0.814213 -17.874146 9.800197 26.538159 0.000000 0.000000 0.000000 0.000000 0.000000 0.000000 -0.000001 -0.000000 0.000001 8.131772 -5.697241 -0.482084 1.782231 -0.854508 -3.806693 1.705047 -1.054560 -3.811616 24.756734 -1.450693 20.060221 -3.345049 -34.260123 21.266084 -0.000002 0.000000 0.000000 -0.000002 0.000000 0.000000 -0.000002 0.000000 0.000000 1.206753 0.210013 -11.805879 -57.343003 -49.995690 -81.056614 -0.000050 -105.612886 -0.000051 -13.964017 -18.733713 2.611938 25.770652 2.087722 -0.829102 59.964259 6.042507 -30.402678 -0.000003 -0.000001 -0.000006 6.791763 6.880631 -89.253422 6.791759 6.880618 -89.253470 -0.000001 -0.000001 -0.000000 6.789817 6.880604 -89.237221 6.793683 6.880626 -89.269685 0.000003 -0.000001 0.000002 6.791749 6.880608 -89.253422 6.791756 6.880621 -89.253463 -0.000002 0.000001 -0.000000 10.875347 6.934118 -89.234331 6.794063 2.794436 -89.280613 0.000001 -0.000001 -0.000002 -0.000001 -0.000000 0.000004 0.446883 -1.005924 5.411316 -12.190896 -4.472440 50.937973 -0.000007 141.513897 -0.000003 -35.413349 7.533607 -14.234607 37.531193 -1.042669 14.670394 59.455834 -23.751529 11.697945 -0.000001 0.000000 -0.000001 7.245911 -6.941908 92.461186 7.245887 -6.941889 92.461213 0.000000 0.000000 0.000000 7.245887 -6.941902 92.461186 7.245886 -6.941876 92.461220 0.000001 0.000003 0.000002 7.245886 -6.941881 92.461186 7.245864 -6.941900 92.461207 0.000001 0.000001 0.000000 7.245880 -6.941861 92.461172 7.245891 -6.941905 92.461220 -0.000000 -0.000000 0.000000 -0.000002 -0.000000 -0.000003 -0.000000 0.000000 -0.000001 -0.000000 0.000000 -0.000001 -0.000000 0.000000 -0.000001 -0.000000 0.000000 -0.000001 -0.000000 0.000000 0.000000 -0.000002 -0.000000 -0.000000 -0.000000 0.000000 -0.000001 -0.000000 0.000000 0.000000 -0.000002 -0.000000 -0.000000 -0.000001 0.000000 0.000000 -0.000001 0.000000 0.000000 0.000000 0.000000 0.000000 
